<svg enable-background="new 0 0 36 36" viewBox="0 0 36 36" xmlns="http://www.w3.org/2000/svg"><path d="m27.4 3.4-4 4c-.8.8-2 .8-2.8 0s-.8-2 0-2.8l4-4c.8-.8 2-.8 2.8 0s.8 2.1 0 2.8z" fill="#ffb500"/><path d="m35.4 11.4-4 4c-.8.8-2 .8-2.8 0s-.8-2 0-2.8l4-4c.8-.8 2-.8 2.8 0s.8 2 0 2.8z" fill="#aa4ac4"/><path d="m35.4 3.4-12.8 12.9c-.8.8-2 .8-2.8 0s-.8-2 0-2.8l12.8-12.9c.8-.8 2-.8 2.8 0s.8 2 0 2.8z" fill="#1b365d"/><path d="m11.4 11.4-8 8c-.8.8-2 .8-2.8 0-.8-.8-.8-2 0-2.8l8-8c.8-.8 2-.8 2.8 0s.8 2.1 0 2.8z" fill="#aa4ac4"/><path d="m27.4 27.4-8 8c-.8.8-2 .8-2.8 0s-.8-2 0-2.8l8-8c.8-.8 2-.8 2.8 0s.8 2 0 2.8z" fill="#1b365d"/><path d="m16.2 22.6-12.8 12.8c-.8.8-2 .8-2.8 0-.8-.8-.8-2 0-2.8l12.8-12.8c.8-.8 2-.8 2.8 0s.8 2 0 2.8z" fill="#00c1d5"/><circle cx="2" cy="10" fill="#ffb500" r="2"/><circle cx="18" cy="2" fill="#00c1d5" r="2"/><circle cx="34" cy="18" fill="#00c1d5" r="2"/><circle cx="26" cy="34" fill="#aa4ac4" r="2"/><path d="m7.4 23.4-4 4c-.8.8-2 .8-2.8 0-.8-.8-.8-2 0-2.8l4-4c.8-.8 2-.8 2.8 0s.8 2 0 2.8z" fill="#1b365d"/><path d="m15.4 31.4-4 4c-.8.8-2 .8-2.8 0s-.8-2 0-2.8l4-4c.8-.8 2-.8 2.8 0s.8 2 0 2.8z" fill="#ffb500"/></svg>