<svg xmlns="http://www.w3.org/2000/svg" enable-background="new 0 0 148.7 36" viewBox="0 0 148.7 36"><g fill="#1b365d"><path d="m48.2 23.1v-15h9.3v2.4h-6.8v4.2h6.1v2.3h-6.1v6h-2.5z"/><path d="m64.3 15.2c-.3 0-.5-.1-.8-.1-1.9 0-2.8 1.1-2.8 3v4.9h-2.4v-10.2h2.4v1.6c.5-1.1 1.6-1.8 3-1.8.3 0 .5 0 .7.1v2.5z"/><path d="m74.9 20.1c-.5 1.8-2.2 3.3-4.6 3.3-2.8 0-5.3-2-5.3-5.5 0-3.3 2.4-5.4 5-5.4 3.2 0 5 2.1 5 5.3 0 .4 0 .7-.1.8h-7.5c.1 1.6 1.3 2.7 2.8 2.7s2.2-.8 2.6-1.8zm-2.3-3.3c0-1.2-.8-2.3-2.5-2.3-1.5 0-2.4 1.2-2.5 2.3z"/><path d="m86.9 21.2c0 .9.1 1.7.1 1.9h-2.3c0-.2-.1-.9-.1-1.3-.5.9-1.6 1.6-3 1.6-3 0-4.9-2.3-4.9-5.4 0-3 2-5.4 4.9-5.4 1.8 0 2.7.8 3 1.5v-6.3h2.4v13.4zm-5.1 0c1.6 0 2.7-1.3 2.7-3.3s-1.1-3.2-2.7-3.2-2.8 1.2-2.8 3.2 1.1 3.3 2.8 3.3z"/><path d="m105 23.1v-6.4h-7v6.4h-2.5v-15h2.5v6.2h7v-6.2h2.6v15z"/><path d="m113.6 23.4c-2.4 0-3.9-1.8-3.9-4.1v-6.5h2.4v6c0 1.3.6 2.3 2.1 2.3 1.4 0 2.2-.9 2.2-2.3v-6.1h2.4v8.4c0 .8.1 1.5.1 1.9h-2.3c0-.2-.1-.7-.1-1.1-.5 1-1.7 1.5-2.9 1.5z"/><path d="m124.6 12.8h2.1v2.2h-2.1v4.8c0 .9.4 1.3 1.3 1.3.3 0 .7-.1.8-.1v2c-.1.1-.6.2-1.5.2-1.9 0-3.1-1.1-3.1-3.1v-5.1h-1.9v-2.2h.5c1.1 0 1.6-.7 1.6-1.6v-1.5h2.2v3.1z"/><path d="m130.2 17.9c0 2.1 1.3 3.2 2.9 3.2s2.3-1.1 2.6-1.9l2.2.8c-.5 1.6-2 3.4-4.7 3.4-3 0-5.3-2.3-5.3-5.5s2.3-5.4 5.3-5.4c2.8 0 4.3 1.7 4.7 3.4l-2.2.8c-.2-.9-.9-1.9-2.5-1.9-1.7-.1-3 1.1-3 3.1z"/><path d="m142 23.1h-2.4v-15.3h2.4v6c.7-.9 1.9-1.3 2.9-1.3 2.5 0 3.8 1.8 3.8 4.1v6.5h-2.4v-6.1c0-1.3-.6-2.3-2.1-2.3-1.4 0-2.1 1-2.1 2.3v6.1z"/><path d="m47.3 31.7c0-2.7 2-4.3 4.1-4.3s3.3 1.2 3.7 2.7l-1.3.4c-.2-1-1-1.8-2.4-1.8s-2.7 1-2.7 3c0 1.9 1.3 2.9 2.7 2.9s2.2-.9 2.4-1.8l1.3.4c-.4 1.4-1.6 2.7-3.7 2.7-2.2.1-4.1-1.5-4.1-4.2z"/><path d="m57.5 32.6 1.4-.2c.3 0 .4-.2.4-.4 0-.5-.3-.9-1.1-.9-.7 0-1.1.5-1.2 1l-1.2-.3c.1-1 1-1.8 2.4-1.8 1.7 0 2.4 1 2.4 2.1v2.8c0 .5.1.8.1.9h-1.3s-.1-.3-.1-.7c-.3.4-.8.9-1.7.9-1.2 0-1.9-.8-1.9-1.7.1-1 .9-1.6 1.8-1.7zm1.9.9v-.3l-1.5.2c-.4.1-.8.3-.8.8 0 .4.3.7.8.7.8 0 1.5-.3 1.5-1.4z"/><path d="m63.4 35.8h-1.4v-5.6h1.3v.8c.4-.6 1-.9 1.7-.9 1.4 0 2 1 2 2.2v3.6h-1.3v-3.3c0-.7-.3-1.3-1.2-1.3-.8 0-1.2.6-1.2 1.3v3.2z"/><path d="m69.3 33c0 1.1.7 1.8 1.6 1.8s1.3-.6 1.4-1l1.2.4c-.3.8-1.2 1.8-2.7 1.8-1.7 0-2.9-1.3-2.9-3s1.3-3 2.9-3c1.5 0 2.4 1 2.6 1.9l-1.2.4c-.1-.5-.5-1.1-1.4-1.1-.8 0-1.5.7-1.5 1.8z"/><path d="m79.5 34.2c-.3 1-1.2 1.8-2.5 1.8-1.5 0-2.9-1.1-2.9-3 0-1.8 1.3-3 2.7-3 1.7 0 2.8 1.1 2.8 2.9v.4h-4.1c0 .9.7 1.5 1.5 1.5s1.2-.4 1.4-1zm-1.3-1.8c0-.7-.5-1.3-1.4-1.3-.8 0-1.3.6-1.4 1.3z"/><path d="m84 31.5c-.2 0-.3 0-.4 0-1 0-1.5.6-1.5 1.7v2.7h-1.3v-5.6h1.2v.9c.3-.6.9-1 1.6-1h.4z"/><path d="m87.6 31.7c0-2.7 2-4.3 4.1-4.3s3.3 1.2 3.7 2.7l-1.3.4c-.2-1-1-1.8-2.4-1.8s-2.7 1-2.7 3c0 1.9 1.3 2.9 2.7 2.9s2.2-.9 2.4-1.8l1.3.4c-.4 1.4-1.6 2.7-3.7 2.7-2.2.1-4.1-1.5-4.1-4.2z"/><path d="m101.6 34.2c-.3 1-1.2 1.8-2.5 1.8-1.5 0-2.9-1.1-2.9-3 0-1.8 1.3-3 2.7-3 1.7 0 2.8 1.1 2.8 2.9v.4h-4.1c0 .9.7 1.5 1.5 1.5s1.2-.4 1.4-1zm-1.3-1.8c0-.7-.5-1.3-1.4-1.3-.8 0-1.3.6-1.4 1.3z"/><path d="m104 35.8h-1.3v-5.6h1.3v.8c.4-.6 1-.9 1.7-.9 1.4 0 2 1 2 2.2v3.6h-1.3v-3.3c0-.7-.3-1.3-1.2-1.3-.8 0-1.2.6-1.2 1.3z"/><path d="m110.7 30.2h1.2v1.2h-1.2v2.6c0 .5.2.7.7.7h.5v1.1c-.1 0-.3.1-.8.1-1 0-1.7-.6-1.7-1.7v-2.8h-1v-1.2h.3c.6 0 .9-.4.9-.9v-.8h1.2v1.7z"/><path d="m117.8 34.2c-.3 1-1.2 1.8-2.5 1.8-1.5 0-2.9-1.1-2.9-3 0-1.8 1.3-3 2.7-3 1.7 0 2.8 1.1 2.8 2.9v.4h-4.1c0 .9.7 1.5 1.5 1.5s1.2-.4 1.4-1zm-1.3-1.8c0-.7-.5-1.3-1.4-1.3-.8 0-1.3.6-1.4 1.3z"/><path d="m122.2 31.5c-.2 0-.3 0-.4 0-1 0-1.5.6-1.5 1.7v2.7h-1.3v-5.6h1.3v.9c.3-.6.9-1 1.6-1h.4v1.3z"/></g><path d="m27.4 3.4-4 4c-.8.8-2 .8-2.8 0s-.8-2 0-2.8l4-4c.8-.8 2-.8 2.8 0s.8 2.1 0 2.8z" fill="#ffb500"/><path d="m35.4 11.4-4 4c-.8.8-2 .8-2.8 0s-.8-2 0-2.8l4-4c.8-.8 2-.8 2.8 0s.8 2 0 2.8z" fill="#aa4ac4"/><path d="m35.4 3.4-12.8 12.9c-.8.8-2 .8-2.8 0s-.8-2 0-2.8l12.8-12.9c.8-.8 2-.8 2.8 0s.8 2 0 2.8z" fill="#1b365d"/><path d="m11.4 11.4-8 8c-.8.8-2 .8-2.8 0-.8-.8-.8-2 0-2.8l8-8c.8-.8 2-.8 2.8 0s.8 2.1 0 2.8z" fill="#aa4ac4"/><path d="m27.4 27.4-8 8c-.8.8-2 .8-2.8 0s-.8-2 0-2.8l8-8c.8-.8 2-.8 2.8 0s.8 2 0 2.8z" fill="#1b365d"/><path d="m16.2 22.6-12.8 12.8c-.8.8-2 .8-2.8 0-.8-.8-.8-2 0-2.8l12.8-12.8c.8-.8 2-.8 2.8 0s.8 2 0 2.8z" fill="#00c1d5"/><circle cx="2" cy="10" fill="#ffb500" r="2"/><circle cx="18" cy="2" fill="#00c1d5" r="2"/><circle cx="34" cy="18" fill="#00c1d5" r="2"/><circle cx="26" cy="34" fill="#aa4ac4" r="2"/><path d="m7.4 23.4-4 4c-.8.8-2 .8-2.8 0-.8-.8-.8-2 0-2.8l4-4c.8-.8 2-.8 2.8 0s.8 2 0 2.8z" fill="#1b365d"/><path d="m15.4 31.4-4 4c-.8.8-2 .8-2.8 0s-.8-2 0-2.8l4-4c.8-.8 2-.8 2.8 0s.8 2 0 2.8z" fill="#ffb500"/></svg>